<svg width="220" height="220" viewBox="0 0 220 220" fill="none" xmlns="http://www.w3.org/2000/svg">
<g filter="url(#filter0_d_1710_13875)">
<circle cx="110" cy="90" r="60" fill="white"/>
</g>
<path d="M72.4936 83.8V95H70.9256V85.192H64.4296V95H62.8456V83.8H72.4936ZM79.3622 95.096C78.5195 95.096 77.7622 94.9093 77.0902 94.536C76.4182 94.1627 75.8902 93.6507 75.5062 93C75.1329 92.3387 74.9462 91.592 74.9462 90.76C74.9462 89.928 75.1329 89.1867 75.5062 88.536C75.8902 87.8747 76.4182 87.3627 77.0902 87C77.7622 86.6267 78.5195 86.44 79.3622 86.44C80.2049 86.44 80.9569 86.6267 81.6182 87C82.2902 87.3627 82.8129 87.8747 83.1862 88.536C83.5702 89.1867 83.7622 89.928 83.7622 90.76C83.7622 91.592 83.5702 92.3387 83.1862 93C82.8129 93.6507 82.2902 94.1627 81.6182 94.536C80.9569 94.9093 80.2049 95.096 79.3622 95.096ZM79.3622 93.752C79.9062 93.752 80.3915 93.6293 80.8182 93.384C81.2555 93.128 81.5969 92.776 81.8422 92.328C82.0875 91.8693 82.2102 91.3467 82.2102 90.76C82.2102 90.1733 82.0875 89.656 81.8422 89.208C81.5969 88.7493 81.2555 88.3973 80.8182 88.152C80.3915 87.9067 79.9062 87.784 79.3622 87.784C78.8182 87.784 78.3275 87.9067 77.8902 88.152C77.4635 88.3973 77.1222 88.7493 76.8662 89.208C76.6209 89.656 76.4982 90.1733 76.4982 90.76C76.4982 91.3467 76.6209 91.8693 76.8662 92.328C77.1222 92.776 77.4635 93.128 77.8902 93.384C78.3275 93.6293 78.8182 93.752 79.3622 93.752ZM94.5417 93.656V96.968H93.1017V95H86.0137V96.968H84.5577V93.656H85.0057C85.5497 93.624 85.923 93.24 86.1257 92.504C86.3284 91.768 86.467 90.728 86.5417 89.384L86.6697 86.52H93.2457V93.656H94.5417ZM87.9497 89.496C87.907 90.5627 87.8164 91.448 87.6777 92.152C87.5497 92.8453 87.3097 93.3467 86.9577 93.656H91.7097V87.864H88.0297L87.9497 89.496ZM101.039 86.44C101.86 86.44 102.596 86.6213 103.247 86.984C103.897 87.3467 104.404 87.8533 104.767 88.504C105.14 89.1547 105.327 89.9067 105.327 90.76C105.327 91.6133 105.14 92.3707 104.767 93.032C104.404 93.6827 103.897 94.1893 103.247 94.552C102.596 94.9147 101.86 95.096 101.039 95.096C100.431 95.096 99.8707 94.9787 99.3587 94.744C98.8574 94.5093 98.4307 94.168 98.0787 93.72V98.104H96.5427V86.52H98.0147V87.864C98.356 87.3947 98.788 87.0427 99.3107 86.808C99.8334 86.5627 100.409 86.44 101.039 86.44ZM100.911 93.752C101.455 93.752 101.94 93.6293 102.367 93.384C102.804 93.128 103.145 92.776 103.391 92.328C103.647 91.8693 103.775 91.3467 103.775 90.76C103.775 90.1733 103.647 89.656 103.391 89.208C103.145 88.7493 102.804 88.3973 102.367 88.152C101.94 87.9067 101.455 87.784 100.911 87.784C100.377 87.784 99.892 87.912 99.4547 88.168C99.028 88.4133 98.6867 88.76 98.4307 89.208C98.1854 89.656 98.0627 90.1733 98.0627 90.76C98.0627 91.3467 98.1854 91.8693 98.4307 92.328C98.676 92.776 99.0174 93.128 99.4547 93.384C99.892 93.6293 100.377 93.752 100.911 93.752ZM111.19 95.096C110.348 95.096 109.59 94.9093 108.918 94.536C108.246 94.1627 107.718 93.6507 107.334 93C106.961 92.3387 106.774 91.592 106.774 90.76C106.774 89.928 106.961 89.1867 107.334 88.536C107.718 87.8747 108.246 87.3627 108.918 87C109.59 86.6267 110.348 86.44 111.19 86.44C112.033 86.44 112.785 86.6267 113.446 87C114.118 87.3627 114.641 87.8747 115.014 88.536C115.398 89.1867 115.59 89.928 115.59 90.76C115.59 91.592 115.398 92.3387 115.014 93C114.641 93.6507 114.118 94.1627 113.446 94.536C112.785 94.9093 112.033 95.096 111.19 95.096ZM111.19 93.752C111.734 93.752 112.22 93.6293 112.646 93.384C113.084 93.128 113.425 92.776 113.67 92.328C113.916 91.8693 114.038 91.3467 114.038 90.76C114.038 90.1733 113.916 89.656 113.67 89.208C113.425 88.7493 113.084 88.3973 112.646 88.152C112.22 87.9067 111.734 87.784 111.19 87.784C110.646 87.784 110.156 87.9067 109.718 88.152C109.292 88.3973 108.95 88.7493 108.694 89.208C108.449 89.656 108.326 90.1733 108.326 90.76C108.326 91.3467 108.449 91.8693 108.694 92.328C108.95 92.776 109.292 93.128 109.718 93.384C110.156 93.6293 110.646 93.752 111.19 93.752ZM122.128 86.808C122.918 86.808 123.622 86.984 124.24 87.336C124.859 87.688 125.339 88.1787 125.68 88.808C126.032 89.4267 126.208 90.136 126.208 90.936C126.208 91.7573 126.022 92.488 125.648 93.128C125.286 93.7573 124.768 94.248 124.096 94.6C123.435 94.952 122.678 95.128 121.824 95.128C120.384 95.128 119.27 94.6373 118.48 93.656C117.702 92.664 117.312 91.272 117.312 89.48C117.312 87.7413 117.67 86.3813 118.384 85.4C119.099 84.408 120.192 83.752 121.664 83.432L125.536 82.568L125.76 83.976L122.192 84.744C121.083 84.9893 120.256 85.4053 119.712 85.992C119.168 86.5787 118.859 87.4213 118.784 88.52C119.147 87.976 119.616 87.5547 120.192 87.256C120.768 86.9573 121.414 86.808 122.128 86.808ZM121.856 93.848C122.4 93.848 122.88 93.7253 123.296 93.48C123.723 93.2347 124.054 92.8987 124.288 92.472C124.523 92.0347 124.64 91.5387 124.64 90.984C124.64 90.1413 124.384 89.464 123.872 88.952C123.36 88.44 122.688 88.184 121.856 88.184C121.024 88.184 120.347 88.44 119.824 88.952C119.312 89.464 119.056 90.1413 119.056 90.984C119.056 91.5387 119.174 92.0347 119.408 92.472C119.654 92.8987 119.99 93.2347 120.416 93.48C120.843 93.7253 121.323 93.848 121.856 93.848ZM128.402 86.52H129.938V90.12H134.77V86.52H136.306V95H134.77V91.448H129.938V95H128.402V86.52ZM146.957 90.808C146.957 90.9253 146.946 91.08 146.925 91.272H140.045C140.141 92.0187 140.466 92.6213 141.021 93.08C141.586 93.528 142.285 93.752 143.117 93.752C144.13 93.752 144.946 93.4107 145.565 92.728L146.413 93.72C146.029 94.168 145.549 94.5093 144.973 94.744C144.407 94.9787 143.773 95.096 143.069 95.096C142.173 95.096 141.378 94.9147 140.685 94.552C139.991 94.1787 139.453 93.6613 139.069 93C138.695 92.3387 138.509 91.592 138.509 90.76C138.509 89.9387 138.69 89.1973 139.053 88.536C139.426 87.8747 139.933 87.3627 140.573 87C141.223 86.6267 141.954 86.44 142.765 86.44C143.575 86.44 144.295 86.6267 144.925 87C145.565 87.3627 146.061 87.8747 146.413 88.536C146.775 89.1973 146.957 89.9547 146.957 90.808ZM142.765 87.736C142.029 87.736 141.41 87.96 140.909 88.408C140.418 88.856 140.13 89.4427 140.045 90.168H145.485C145.399 89.4533 145.106 88.872 144.605 88.424C144.114 87.9653 143.501 87.736 142.765 87.736ZM157.004 90.808C157.004 90.9253 156.993 91.08 156.972 91.272H150.092C150.188 92.0187 150.513 92.6213 151.068 93.08C151.633 93.528 152.332 93.752 153.164 93.752C154.177 93.752 154.993 93.4107 155.612 92.728L156.46 93.72C156.076 94.168 155.596 94.5093 155.02 94.744C154.454 94.9787 153.82 95.096 153.116 95.096C152.22 95.096 151.425 94.9147 150.732 94.552C150.038 94.1787 149.5 93.6613 149.116 93C148.742 92.3387 148.556 91.592 148.556 90.76C148.556 89.9387 148.737 89.1973 149.1 88.536C149.473 87.8747 149.98 87.3627 150.62 87C151.27 86.6267 152.001 86.44 152.812 86.44C153.622 86.44 154.342 86.6267 154.972 87C155.612 87.3627 156.108 87.8747 156.46 88.536C156.822 89.1973 157.004 89.9547 157.004 90.808ZM152.812 87.736C152.076 87.736 151.457 87.96 150.956 88.408C150.465 88.856 150.177 89.4427 150.092 90.168H155.532C155.446 89.4533 155.153 88.872 154.652 88.424C154.161 87.9653 153.548 87.736 152.812 87.736Z" fill="#383838"/>
<defs>
<filter id="filter0_d_1710_13875" x="0" y="0" width="220" height="220" filterUnits="userSpaceOnUse" color-interpolation-filters="sRGB">
<feFlood flood-opacity="0" result="BackgroundImageFix"/>
<feColorMatrix in="SourceAlpha" type="matrix" values="0 0 0 0 0 0 0 0 0 0 0 0 0 0 0 0 0 0 127 0" result="hardAlpha"/>
<feOffset dy="20"/>
<feGaussianBlur stdDeviation="25"/>
<feColorMatrix type="matrix" values="0 0 0 0 0 0 0 0 0 0 0 0 0 0 0 0 0 0 0.1 0"/>
<feBlend mode="normal" in2="BackgroundImageFix" result="effect1_dropShadow_1710_13875"/>
<feBlend mode="normal" in="SourceGraphic" in2="effect1_dropShadow_1710_13875" result="shape"/>
</filter>
</defs>
</svg>
