<svg width="356" height="220" viewBox="0 0 356 220" fill="none" xmlns="http://www.w3.org/2000/svg">
<g filter="url(#filter0_d_1710_13870)">
<circle cx="178" cy="90" r="60" fill="white"/>
</g>
<path d="M149.471 89.16C150.175 89.352 150.725 89.688 151.119 90.168C151.514 90.6373 151.711 91.2027 151.711 91.864C151.711 92.5253 151.498 93.1067 151.071 93.608C150.655 94.0987 150.095 94.4773 149.391 94.744C148.698 95 147.941 95.128 147.119 95.128C146.373 95.128 145.631 95.016 144.895 94.792C144.159 94.568 143.487 94.232 142.879 93.784L143.439 92.6C143.93 92.984 144.479 93.272 145.087 93.464C145.695 93.656 146.309 93.752 146.927 93.752C147.823 93.752 148.575 93.5653 149.183 93.192C149.791 92.808 150.095 92.2853 150.095 91.624C150.095 91.0587 149.866 90.6267 149.407 90.328C148.949 90.0187 148.303 89.864 147.471 89.864H144.975V88.568H147.359C148.074 88.568 148.629 88.424 149.023 88.136C149.429 87.8373 149.631 87.4267 149.631 86.904C149.631 86.3173 149.37 85.8533 148.847 85.512C148.325 85.1707 147.663 85 146.863 85C146.341 85 145.807 85.0747 145.263 85.224C144.73 85.3733 144.223 85.5973 143.743 85.896L143.231 84.584C143.797 84.264 144.394 84.024 145.023 83.864C145.653 83.704 146.282 83.624 146.911 83.624C147.701 83.624 148.426 83.7467 149.087 83.992C149.749 84.2373 150.271 84.5947 150.655 85.064C151.05 85.5333 151.247 86.0827 151.247 86.712C151.247 87.2773 151.087 87.7733 150.767 88.2C150.458 88.6267 150.026 88.9467 149.471 89.16ZM157.145 86.44C158.318 86.44 159.214 86.728 159.833 87.304C160.462 87.88 160.777 88.7387 160.777 89.88V95H159.321V93.88C159.065 94.2747 158.697 94.5787 158.217 94.792C157.747 94.9947 157.187 95.096 156.537 95.096C155.587 95.096 154.825 94.8667 154.249 94.408C153.683 93.9493 153.401 93.3467 153.401 92.6C153.401 91.8533 153.673 91.256 154.217 90.808C154.761 90.3493 155.625 90.12 156.809 90.12H159.241V89.816C159.241 89.1547 159.049 88.648 158.665 88.296C158.281 87.944 157.715 87.768 156.969 87.768C156.467 87.768 155.977 87.8533 155.497 88.024C155.017 88.184 154.611 88.4027 154.281 88.68L153.641 87.528C154.078 87.176 154.601 86.9093 155.209 86.728C155.817 86.536 156.462 86.44 157.145 86.44ZM156.793 93.912C157.379 93.912 157.886 93.784 158.313 93.528C158.739 93.2613 159.049 92.888 159.241 92.408V91.224H156.873C155.571 91.224 154.921 91.6613 154.921 92.536C154.921 92.9627 155.086 93.2987 155.417 93.544C155.747 93.7893 156.206 93.912 156.793 93.912ZM166.839 91.416H165.079V95H163.543V86.52H165.079V90.104H166.871L169.623 86.52H171.271L168.055 90.6L171.495 95H169.687L166.839 91.416ZM177.601 86.44C178.423 86.44 179.159 86.6213 179.809 86.984C180.46 87.3467 180.967 87.8533 181.329 88.504C181.703 89.1547 181.889 89.9067 181.889 90.76C181.889 91.6133 181.703 92.3707 181.329 93.032C180.967 93.6827 180.46 94.1893 179.809 94.552C179.159 94.9147 178.423 95.096 177.601 95.096C176.993 95.096 176.433 94.9787 175.921 94.744C175.42 94.5093 174.993 94.168 174.641 93.72V98.104H173.105V86.52H174.577V87.864C174.919 87.3947 175.351 87.0427 175.873 86.808C176.396 86.5627 176.972 86.44 177.601 86.44ZM177.473 93.752C178.017 93.752 178.503 93.6293 178.929 93.384C179.367 93.128 179.708 92.776 179.953 92.328C180.209 91.8693 180.337 91.3467 180.337 90.76C180.337 90.1733 180.209 89.656 179.953 89.208C179.708 88.7493 179.367 88.3973 178.929 88.152C178.503 87.9067 178.017 87.784 177.473 87.784C176.94 87.784 176.455 87.912 176.017 88.168C175.591 88.4133 175.249 88.76 174.993 89.208C174.748 89.656 174.625 90.1733 174.625 90.76C174.625 91.3467 174.748 91.8693 174.993 92.328C175.239 92.776 175.58 93.128 176.017 93.384C176.455 93.6293 176.94 93.752 177.473 93.752ZM187.945 89.4C189.011 89.4107 189.827 89.656 190.393 90.136C190.958 90.616 191.241 91.2933 191.241 92.168C191.241 93.0853 190.931 93.7947 190.313 94.296C189.705 94.7867 188.83 95.0267 187.689 95.016L184.121 95V86.52H185.657V89.384L187.945 89.4ZM192.505 86.52H194.041V95H192.505V86.52ZM187.577 93.848C188.27 93.8587 188.793 93.72 189.145 93.432C189.507 93.144 189.689 92.7173 189.689 92.152C189.689 91.5973 189.513 91.192 189.161 90.936C188.809 90.68 188.281 90.5467 187.577 90.536L185.657 90.504V93.832L187.577 93.848ZM203.347 87.864H200.243V95H198.707V87.864H195.603V86.52H203.347V87.864ZM208.838 89.4C209.915 89.4107 210.736 89.656 211.302 90.136C211.867 90.616 212.15 91.2933 212.15 92.168C212.15 93.0853 211.84 93.7947 211.222 94.296C210.614 94.7867 209.739 95.0267 208.598 95.016L204.918 95V86.52H206.454V89.384L208.838 89.4ZM208.47 93.848C209.163 93.8587 209.686 93.72 210.038 93.432C210.4 93.144 210.582 92.7173 210.582 92.152C210.582 91.5973 210.406 91.192 210.054 90.936C209.712 90.68 209.184 90.5467 208.47 90.536L206.454 90.504V93.832L208.47 93.848Z" fill="#383838"/>
<g filter="url(#filter1_d_1710_13870)">
<line x1="246" y1="90.5" x2="306" y2="90.5" stroke="white"/>
</g>
<g filter="url(#filter2_d_1710_13870)">
<line x1="50" y1="90.5" x2="110" y2="90.5" stroke="white"/>
</g>
<defs>
<filter id="filter0_d_1710_13870" x="68" y="0" width="220" height="220" filterUnits="userSpaceOnUse" color-interpolation-filters="sRGB">
<feFlood flood-opacity="0" result="BackgroundImageFix"/>
<feColorMatrix in="SourceAlpha" type="matrix" values="0 0 0 0 0 0 0 0 0 0 0 0 0 0 0 0 0 0 127 0" result="hardAlpha"/>
<feOffset dy="20"/>
<feGaussianBlur stdDeviation="25"/>
<feColorMatrix type="matrix" values="0 0 0 0 0 0 0 0 0 0 0 0 0 0 0 0 0 0 0.1 0"/>
<feBlend mode="normal" in2="BackgroundImageFix" result="effect1_dropShadow_1710_13870"/>
<feBlend mode="normal" in="SourceGraphic" in2="effect1_dropShadow_1710_13870" result="shape"/>
</filter>
<filter id="filter1_d_1710_13870" x="196" y="60" width="160" height="101" filterUnits="userSpaceOnUse" color-interpolation-filters="sRGB">
<feFlood flood-opacity="0" result="BackgroundImageFix"/>
<feColorMatrix in="SourceAlpha" type="matrix" values="0 0 0 0 0 0 0 0 0 0 0 0 0 0 0 0 0 0 127 0" result="hardAlpha"/>
<feOffset dy="20"/>
<feGaussianBlur stdDeviation="25"/>
<feColorMatrix type="matrix" values="0 0 0 0 0 0 0 0 0 0 0 0 0 0 0 0 0 0 0.1 0"/>
<feBlend mode="normal" in2="BackgroundImageFix" result="effect1_dropShadow_1710_13870"/>
<feBlend mode="normal" in="SourceGraphic" in2="effect1_dropShadow_1710_13870" result="shape"/>
</filter>
<filter id="filter2_d_1710_13870" x="0" y="60" width="160" height="101" filterUnits="userSpaceOnUse" color-interpolation-filters="sRGB">
<feFlood flood-opacity="0" result="BackgroundImageFix"/>
<feColorMatrix in="SourceAlpha" type="matrix" values="0 0 0 0 0 0 0 0 0 0 0 0 0 0 0 0 0 0 127 0" result="hardAlpha"/>
<feOffset dy="20"/>
<feGaussianBlur stdDeviation="25"/>
<feColorMatrix type="matrix" values="0 0 0 0 0 0 0 0 0 0 0 0 0 0 0 0 0 0 0.1 0"/>
<feBlend mode="normal" in2="BackgroundImageFix" result="effect1_dropShadow_1710_13870"/>
<feBlend mode="normal" in="SourceGraphic" in2="effect1_dropShadow_1710_13870" result="shape"/>
</filter>
</defs>
</svg>
